<?xml version="1.0" encoding="iso-8859-1"?>
<!-- Generator: Adobe Illustrator 19.0.0, SVG Export Plug-In . SVG Version: 6.00 Build 0)  -->
<svg version="1.1" id="Capa_1" xmlns="http://www.w3.org/2000/svg" xmlns:xlink="http://www.w3.org/1999/xlink" x="0px" y="0px"
	 viewBox="0 0 511.999 511.999" style="enable-background:new 0 0 511.999 511.999;" xml:space="preserve">
<path style="fill:#FFEBBE;" d="M440.26,183.052l-16.101-9.45c-32.345-18.984-73.079,4.34-73.079,41.844V91.664
	c0-17.504-14.19-31.693-31.693-31.693l0,0c-17.504,0-31.693,14.189-31.693,31.693V39.356c0-17.504-14.189-31.693-31.693-31.693l0,0
	c-17.504,0-31.693,14.19-31.693,31.693v52.308c0-17.504-14.19-31.693-31.693-31.693l0,0c-17.504,0-31.693,14.189-31.693,31.693
	v123.781c0-37.505-40.734-60.829-73.079-41.844l-16.101,9.45c-1.78,1.045-1.067,3.768,0.996,3.808l0,0
	c13.771,0.262,24.798,11.501,24.798,25.274v21.753v75.408v37.491c0,87.518,70.947,158.465,158.466,158.465l0,0
	c87.518,0,158.466-70.947,158.466-158.465v-37.491V266.8v-54.666c0-13.774,11.027-25.012,24.798-25.274
	C441.327,186.82,442.04,184.096,440.26,183.052z"/>
<g>
	<path style="fill:#F7DBB5;" d="M424.159,173.601c-11.247-6.601-23.508-8.083-34.718-5.635c4.848,1.068,9.667,2.921,14.314,5.653
		c6.684,3.929,7.063,13.467,0.776,18.005c-6.365,4.595-10.498,12.077-10.498,20.51V266.8v42.495v37.491
		c0,84.085-65.493,152.861-148.249,158.128c3.379,0.215,6.784,0.337,10.217,0.337h7.383c12.363-0.631,61.593-4.577,102.976-44.745
		c43.538-42.26,47.507-94.634,48.107-106.338v-44.873V266.8v-54.666c0-13.768,11.017-25.002,24.78-25.274
		c2.067-0.041,2.767-2.779,0.985-3.825L424.159,173.601z"/>
	<path style="fill:#F7DBB5;" d="M192.572,59.971L192.572,59.971c-3.492,0-6.849,0.573-9.991,1.616
		c12.606,4.186,21.703,16.065,21.703,30.076v116.328c0,11.035,8.946,19.981,19.981,19.981l0,0V91.664
		C224.264,74.161,210.075,59.971,192.572,59.971z"/>
	<path style="fill:#F7DBB5;" d="M319.344,59.971L319.344,59.971c-3.492,0-6.849,0.573-9.991,1.616
		c12.606,4.186,21.702,16.065,21.702,30.076v120.29c0,11.373,8.658,20.876,19.981,21.932l0,0V91.664
		C351.037,74.161,336.848,59.971,319.344,59.971z"/>
</g>
<path style="fill:#FFCF65;" d="M331.056,372.55c0,41.475-33.622,75.098-75.098,75.098s-75.098-33.623-75.098-75.098
	c0-60.112,75.098-113.243,75.098-113.243S331.056,312.438,331.056,372.55z"/>
<path style="fill:#FFB864;" d="M255.958,259.307c0,0-2.092,1.482-5.567,4.218c14.084,18.668,25.687,41.214,25.687,64.842
	c0,41.476-33.623,75.098-75.098,75.098c-4.808,0-9.504-0.47-14.061-1.334c11.484,26.766,38.068,45.517,69.038,45.517
	c41.476,0,75.098-33.623,75.098-75.098C331.056,312.437,255.958,259.307,255.958,259.307z"/>
<path style="fill:#F7DBB5;" d="M255.958,7.663L255.958,7.663c-3.492,0-6.849,0.573-9.991,1.616
	c12.606,4.186,21.702,16.065,21.702,30.077v168.636c0,11.035,8.946,19.981,19.981,19.981l0,0V39.356
	C287.651,21.853,273.461,7.663,255.958,7.663z"/>
<path style="fill:#EDEDEE;" d="M255.823,336.905c28.774-0.114,54.844,11.541,73.662,30.436c2.089,2.098,2.103,5.49,0.03,7.604
	c-18.667,19.044-44.644,30.906-73.418,31.02s-54.844-11.541-73.662-30.436c-2.089-2.098-2.103-5.49-0.03-7.604
	C201.073,348.881,227.05,337.02,255.823,336.905z"/>
<path style="fill:#DCDBDE;" d="M187.148,379.966c18.209-16.373,42.262-26.382,68.675-26.487c26.446-0.105,50.603,9.737,68.95,26
	c1.627-1.463,3.212-2.971,4.742-4.533c2.072-2.114,2.059-5.506-0.03-7.604c-18.818-18.895-44.888-30.55-73.662-30.436
	c-28.774,0.115-54.751,11.976-73.418,31.02c-2.072,2.114-2.059,5.506,0.03,7.604C183.958,377.058,185.533,378.534,187.148,379.966z"
	/>
<path style="fill:#736F7B;" d="M282.943,344.234c-0.005-1.333-0.118-2.64-0.31-3.921c-8.555-2.254-17.541-3.445-26.809-3.408
	c-9.271,0.037-18.25,1.3-26.79,3.624c-0.181,1.281-0.283,2.588-0.278,3.921c0.059,14.963,12.238,27.045,27.201,26.986
	C270.92,371.376,283.002,359.197,282.943,344.234z"/>
<path style="fill:#625D6B;" d="M228.922,340.529L228.922,340.529c-0.181,1.281-0.283,2.588-0.278,3.921
	c0.017,4.309,1.044,8.376,2.848,11.986c7.765-1.899,15.874-2.924,24.22-2.957c8.385-0.033,16.54,0.937,24.353,2.791
	c1.784-3.631,2.784-7.716,2.767-12.036c-0.005-1.333-0.118-2.64-0.31-3.921c-8.556-2.254-17.541-3.445-26.809-3.408
	C246.44,336.942,237.462,338.205,228.922,340.529z"/>
<g>
	<polyline style="fill:#FF5F5B;" points="97.534,246.474 160.921,221.716 160.921,253.171 97.534,279.827 97.534,246.474 	"/>
	<polyline style="fill:#FF5F5B;" points="414.466,246.474 351.08,221.716 351.08,253.171 414.466,279.827 414.466,246.474 	"/>
</g>
<polygon style="fill:#FF554D;" points="394.032,266.8 394.032,271.234 414.466,279.827 414.466,266.8 414.466,246.474
	394.032,238.493 "/>
<g>
	<path style="fill:#FF915A;" d="M104.57,306.252c-2.422,0-4.775,0.29-7.035,0.821v39.713c0,6.851,0.435,13.601,1.279,20.224
		c1.865,0.354,3.788,0.548,5.756,0.548c16.929,0,30.652-13.723,30.652-30.652C135.222,319.976,121.498,306.252,104.57,306.252z"/>
	<path style="fill:#FF915A;" d="M406.955,306.252c-21.861,0-38.377,22.886-26.897,46.006c2.329,4.69,6.008,8.544,10.623,11.018
		c7.814,4.189,15.59,5.076,22.517,3.642c0.836-6.593,1.268-13.313,1.268-20.133v-39.603
		C412.062,306.577,409.546,306.252,406.955,306.252z"/>
</g>
<path style="fill:#FF7955;" d="M394.032,309.114v0.181v37.491c0,5.968-0.341,11.855-0.984,17.652
	c7.01,3.175,13.923,3.77,20.15,2.481c0.836-6.593,1.268-13.313,1.268-20.133v-37.491v-2.112c-2.404-0.606-4.919-0.93-7.511-0.93
	C402.335,306.252,397.96,307.284,394.032,309.114z"/>
<circle cx="193.32" cy="203.01" r="7.663"/>
<circle cx="193.32" cy="238.81" r="7.663"/>
<circle cx="193.32" cy="167.2" r="7.663"/>
<circle cx="123.49" cy="203.01" r="7.663"/>
<circle cx="193.32" cy="131.4" r="7.663"/>
<circle cx="193.32" cy="95.6" r="7.663"/>
<circle cx="319.39" cy="203.01" r="7.663"/>
<circle cx="319.39" cy="238.81" r="7.663"/>
<circle cx="259.53" cy="475.75" r="7.663"/>
<circle cx="292.92" cy="470.13" r="7.663"/>
<circle cx="324.42" cy="453.78" r="7.663"/>
<circle cx="351.08" cy="423.1" r="7.663"/>
<circle cx="223.34" cy="470.13" r="7.663"/>
<circle cx="191.84" cy="453.78" r="7.663"/>
<circle cx="165.18" cy="423.1" r="7.663"/>
<circle cx="319.39" cy="167.2" r="7.663"/>
<circle cx="319.39" cy="131.4" r="7.663"/>
<circle cx="319.39" cy="95.6" r="7.663"/>
<circle cx="256" cy="148.83" r="7.663"/>
<circle cx="256" cy="184.64" r="7.663"/>
<circle cx="256" cy="113.03" r="7.663"/>
<circle cx="256" cy="77.22" r="7.663"/>
<circle cx="256" cy="41.42" r="7.663"/>
<circle cx="388.51" cy="203.01" r="7.663"/>
<path d="M164.343,316.875c-3.75-1.958-8.38-0.507-10.341,3.243c-1.96,3.752-0.508,8.38,3.243,10.341l21.544,11.257
	c-2.648,7.442-4.35,14.798-5.117,22.056H152.21c-4.232,0-7.663,3.43-7.663,7.663s3.431,7.663,7.663,7.663h21.27
	c3.353,42.581,39.05,76.212,82.478,76.212s79.125-33.631,82.478-76.212h21.229c4.232,0,7.663-3.43,7.663-7.663
	s-3.431-7.663-7.663-7.663h-21.422c-0.767-7.264-2.471-14.627-5.123-22.074l21.509-11.239c3.751-1.961,5.203-6.589,3.243-10.341
	c-1.96-3.75-6.59-5.202-10.341-3.243l-20.513,10.719c-3.32-6.549-7.341-13.153-12.064-19.805l19.233-13.655
	c3.451-2.45,4.262-7.234,1.812-10.684c-2.45-3.451-7.234-4.263-10.684-1.812l-19.722,14.003c-2.041-2.458-4.169-4.921-6.397-7.389
	c-2.397-2.655-4.79-5.189-7.145-7.59l14.956-20.218c2.517-3.402,1.799-8.201-1.603-10.717c-3.403-2.518-8.201-1.798-10.718,1.603
	l-13.765,18.609c-7.446-6.783-13.708-11.756-17.298-14.489v-27.475c0-4.233-3.431-7.663-7.663-7.663s-7.663,3.43-7.663,7.663v27.475
	c-3.594,2.736-9.866,7.717-17.323,14.511l-13.782-18.632c-2.517-3.403-7.316-4.119-10.718-1.603
	c-3.402,2.516-4.12,7.315-1.603,10.717l14.974,20.242c-2.347,2.395-4.732,4.92-7.121,7.566c-2.234,2.475-4.367,4.944-6.413,7.408
	l-19.748-14.021c-3.451-2.451-8.235-1.638-10.684,1.812c-2.45,3.45-1.639,8.235,1.812,10.684l19.261,13.675
	c-4.721,6.651-8.74,13.255-12.059,19.802L164.343,316.875z M319.344,348.896c-13.543-9.395-28.924-15.588-45.224-18.214
	c-8.512-1.393-17.211-1.77-25.813-1.156c-20.289,1.421-39.475,8.276-55.893,19.862c12.323-37.877,50.488-70.253,63.544-80.474
	C268.959,279.091,306.852,311.23,319.344,348.896z M241.329,345.727c11.202-1.755,22.721-1.513,33.839,0.718
	c-0.467,4.367-2.386,8.417-5.525,11.581c-3.655,3.685-8.527,5.725-13.717,5.745c-5.205-0.012-10.078-1.981-13.762-5.637
	c-3.163-3.138-5.115-7.171-5.617-11.535C238.135,346.274,239.729,345.983,241.329,345.727
	C241.853,345.645,240.406,345.87,241.329,345.727z M221.728,350.975c1.308,6.804,4.617,13.056,9.643,18.042
	c6.557,6.505,15.244,10.082,24.474,10.082c0.047,0,0.095,0,0.143,0c9.284-0.037,17.998-3.687,24.537-10.277
	c4.986-5.027,8.246-11.306,9.499-18.12c11.945,4.501,22.959,11.389,32.426,20.47c-17.868,17.414-41.353,27.031-66.381,27.131
	c-0.13,0.001-0.259,0.001-0.39,0.001c-24.883,0-48.294-9.423-66.205-26.604C198.866,362.545,209.822,355.57,221.728,350.975z
	 M255.958,439.985c-29.875,0-55.26-19.535-64.09-46.496c18.556,13.094,40.628,20.141,63.808,20.141c0.15,0,0.303,0,0.452-0.001
	c23.34-0.093,45.52-7.32,64.091-20.644C311.542,420.208,286.02,439.985,255.958,439.985z"/>
<path d="M444.139,176.443l-16.101-9.45c-17.59-10.325-38.657-10.439-56.356-0.302c-4.88,2.794-9.215,6.207-12.939,10.108V91.664
	c0-21.701-17.655-39.356-39.356-39.356c-9.043,0-17.377,3.073-24.03,8.22V39.356C295.356,17.655,277.701,0,256,0
	s-39.356,17.655-39.356,39.356v21.172c-6.653-5.146-14.987-8.22-24.03-8.22c-21.701,0-39.356,17.655-39.356,39.356v21.364
	c0,4.233,3.431,7.663,7.663,7.663s7.663-3.43,7.663-7.663V91.664c0-13.25,10.78-24.03,24.03-24.03s24.03,10.78,24.03,24.03v130.051
	v6.258c0,4.233,3.431,7.663,7.663,7.663s7.663-3.43,7.663-7.663v-6.258V91.664V39.356c0-13.25,10.78-24.03,24.03-24.03
	s24.03,10.78,24.03,24.03v52.308v136.31c0,4.233,3.431,7.663,7.663,7.663s7.663-3.43,7.663-7.663V91.664
	c0-13.25,10.78-24.03,24.03-24.03s24.03,10.78,24.03,24.03v123.781v6.27v12.171v19.284v28.007c0,4.233,3.431,7.663,7.663,7.663
	s7.663-3.43,7.663-7.663v-16.472l48.06,20.211v13.676c-21.057,0.082-38.164,17.235-38.164,38.311
	c0,20.176,15.679,36.748,35.491,38.2c-12.068,63.264-63.807,113.344-129.698,121.369c-4.201,0.512-7.192,4.332-6.68,8.534
	c0.473,3.886,3.778,6.737,7.597,6.737c0.309,0,0.622-0.019,0.936-0.057c75.993-9.256,134.896-69.277,144.469-143.58
	c1.101-6.985,1.375-14.257,1.375-21.323v-134.65c0-9.53,7.752-17.43,17.279-17.612c4.394-0.083,8.095-2.996,9.208-7.248
	C449.729,183.02,447.93,178.668,444.139,176.443z M358.743,248.081v-14.194v-0.951l48.06,18.771V266.8v1.492L358.743,248.081z
	 M383.965,336.904c0-12.626,10.23-22.907,22.837-22.989v32.87c0,4.371-0.196,8.742-0.573,13.097
	C393.888,359.497,383.965,349.338,383.965,336.904z M406.803,212.133v23.121l-48.06-18.772v-1.036
	c0-14.831,7.684-28.086,20.555-35.456c12.871-7.369,28.191-7.288,40.982,0.22l4.48,2.63
	C414.126,188.339,406.803,199.466,406.803,212.133z"/>
<path d="M144.091,447.87c-18.672-20.658-31.094-45.836-36.225-72.802c19.589-1.678,35.019-18.148,35.019-38.164
	c0-20.917-16.85-37.961-37.687-38.299v-13.687l48.06-20.211v16.472c0,4.233,3.431,7.663,7.663,7.663s7.663-3.43,7.663-7.663V148.832
	c0-4.233-3.431-7.663-7.663-7.663s-7.663,3.43-7.663,7.663v27.966c-3.724-3.901-8.058-7.314-12.939-10.108
	c-17.699-10.134-38.766-10.021-56.356,0.302l-16.101,9.449c-3.792,2.225-5.591,6.577-4.478,10.83
	c1.113,4.253,4.813,7.166,9.207,7.249c9.529,0.182,17.281,8.082,17.281,17.612v134.652c0,7.112,0.263,14.403,1.391,21.434
	c4.32,33.36,18.657,64.702,41.459,89.928c27.43,30.347,64.839,49.457,105.335,53.808c0.278,0.03,0.554,0.045,0.828,0.045
	c3.864,0,7.188-2.916,7.61-6.846c0.452-4.208-2.592-7.985-6.8-8.437C202.945,492.769,168.993,475.421,144.091,447.87z
	 M127.559,336.904c0,12.274-9.669,22.331-21.789,22.958c-0.376-4.348-0.572-8.712-0.572-13.077v-32.862
	C117.585,314.257,127.559,324.438,127.559,336.904z M105.198,268.292v-16.584l48.06-18.771v0.951v14.194L105.198,268.292z
	 M87.24,182.84l4.481-2.63c12.791-7.506,28.111-7.589,40.982-0.22c12.871,7.37,20.555,20.624,20.555,35.456v1.036l-48.06,18.772
	v-1.367v-21.754C105.198,199.466,97.875,188.339,87.24,182.84z"/>
<g>
</g>
<g>
</g>
<g>
</g>
<g>
</g>
<g>
</g>
<g>
</g>
<g>
</g>
<g>
</g>
<g>
</g>
<g>
</g>
<g>
</g>
<g>
</g>
<g>
</g>
<g>
</g>
<g>
</g>
</svg>
