<?xml version="1.0" encoding="iso-8859-1"?>
<!-- Generator: Adobe Illustrator 19.0.0, SVG Export Plug-In . SVG Version: 6.00 Build 0)  -->
<svg version="1.1" id="Capa_1" xmlns="http://www.w3.org/2000/svg" xmlns:xlink="http://www.w3.org/1999/xlink" x="0px" y="0px"
	 viewBox="0 0 512 512" style="enable-background:new 0 0 512 512;" xml:space="preserve">
<circle style="fill:#736F7B;" cx="99.46" cy="170.041" r="89.13"/>
<circle style="fill:#F9F9F9;" cx="67.3" cy="181.581" r="17.569"/>
<circle style="fill:#736F7B;" cx="96.52" cy="168.001" r="89.13"/>
<circle style="fill:#F9F9F9;" cx="64.36" cy="179.551" r="17.569"/>
<path style="fill:#736F7B;" d="M293.492,60.747l-79.593,74.5c-0.855,0.8-1.444,1.777-1.771,2.82
	c-0.428,0.523-0.809,1.095-1.124,1.725l-34.49,69.173l-34.49,69.173c-0.379,0.761-0.634,1.55-0.789,2.346
	c-0.822,0.968-1.373,2.185-1.518,3.543l-11.601,108.401c-1.697,15.854,9.78,30.081,25.634,31.778l0,0
	c15.854,1.697,30.081-9.78,31.778-25.634l7.484-69.936c0.728-6.802,8.017-10.792,14.139-7.739l82.608,41.188
	c1.71,0.853,3.134,2.186,4.097,3.836l52.228,89.476c7.355,12.6,23.531,16.852,36.131,9.497l0,0
	c12.6-7.355,16.852-23.531,9.497-36.131l-35.16-60.234c-3.694-6.328-3.949-14.092-0.68-20.649l39.688-79.599
	c3.27-6.557,9.624-11.025,16.901-11.884l68.591-8.089c14.489-1.708,24.849-14.839,23.141-29.328l0,0
	c-1.709-14.489-14.839-24.849-29.328-23.141l-102.89,12.133c-1.898,0.224-3.819-0.111-5.529-0.964l-81.787-40.779
	c-6.122-3.053-7.322-11.275-2.328-15.95l50.617-47.378c11.641-10.896,12.245-29.165,1.349-40.806l0,0
	C323.402,50.455,305.133,49.851,293.492,60.747z"/>
<g>
	<path style="fill:#625D6B;" d="M504.194,218.979c-1.709-14.489-14.839-24.849-29.328-23.141l-25.953,3.06
		c13.129,0.623,24.267,10.65,25.857,24.135c1.399,11.863-5.013,22.841-15.17,27.804l21.453-2.53
		C495.542,246.599,505.902,233.468,504.194,218.979z"/>
	<path style="fill:#625D6B;" d="M379.708,261.808c-7.541,0.889-14.126,5.519-17.514,12.315l-31.65,63.478
		c-9.303,18.659-8.576,40.75,1.935,58.756l25.727,44.075c4.853,8.315,4.823,18.129,0.794,26.132
		c7.318,2.953,15.873,2.615,23.216-1.671c12.6-7.355,16.852-23.531,9.497-36.131l-35.159-60.234
		c-3.694-6.328-3.949-14.092-0.68-20.649l39.688-79.599c2.025-4.061,5.235-7.318,9.112-9.415L379.708,261.808z"/>
	<path style="fill:#625D6B;" d="M295.873,62.095L295.873,62.095c11.234,11.234,10.935,29.308-0.664,40.165l-51.302,48.019
		c-4.994,4.675-3.795,12.897,2.327,15.95l56.404,28.123c18.271,9.11,38.803,12.689,59.078,10.298l0,0l-77.057-38.421
		c-6.122-3.053-7.322-11.275-2.328-15.95l51.302-48.019c11.599-10.857,11.898-28.931,0.664-40.165l0,0
		c-10.736-11.471-28.628-12.216-40.287-1.81C294.651,60.857,295.275,61.457,295.873,62.095z"/>
	<path style="fill:#625D6B;" d="M192.568,332.784c-20.963-2.29-39.803,12.874-42.047,33.841l-3.419,31.946
		c-0.794,7.415-4.329,13.872-9.49,18.472c4.347,3.882,9.9,6.494,16.137,7.162l0,0c15.854,1.697,30.081-9.78,31.778-25.634
		L192.568,332.784L192.568,332.784z"/>
</g>
<path style="fill:#ED5A5A;" d="M248.413,208.368L248.413,208.368c-4.187,6.021-4.317,13.654-0.97,19.655
	c0.859,1.541-0.39,3.348-2.133,3.078c-6.792-1.052-13.907,1.724-18.096,7.747l0,0c-5.854,8.417-3.776,19.985,4.64,25.839l0,0
	c7.494,5.212,46.216-3.703,54.62-5.722c0.922-0.221,1.532-1.097,1.418-2.039c-1.032-8.581-6.146-47.986-13.639-53.198l0,0
	C265.836,197.874,254.267,199.951,248.413,208.368z"/>
<path style="fill:#E04B4B;" d="M274.252,203.728L274.252,203.728c-5.376-3.739-12.032-4.228-17.669-1.911
	c1.213,0.502,2.393,1.131,3.515,1.911l0,0c4.236,2.946,7.711,16.818,10.119,29.873c2.612,14.163-6.883,27.719-21.071,30.193
	c-4.791,0.836-9.732,1.574-14.276,2.029c11.678,2.399,43.794-4.984,51.524-6.838c0.969-0.232,1.607-1.15,1.488-2.139
	C286.828,248.099,281.722,208.923,274.252,203.728z"/>
<circle style="fill:#ED5A5A;" cx="435.89" cy="69.141" r="25.403"/>
<path style="fill:#E04B4B;" d="M447.447,46.52c-3.989-2.037-8.264-2.914-12.444-2.763c11.929,6.606,16.557,21.527,10.309,33.763
	c-4.344,8.505-12.821,13.513-21.733,13.834c0.252,0.14,0.503,0.281,0.762,0.414c12.495,6.381,27.796,1.424,34.177-11.071
	C464.898,68.202,459.941,52.901,447.447,46.52z"/>
<path style="fill:#49BC6E;" d="M486.448,160.724c-12.078,6.781-27.365,2.156-34.146-10.329s-2.486-28.104,9.591-34.885
	c12.078-6.781,27.365-2.156,34.146,10.329S498.526,153.943,486.448,160.724z"/>
<path style="fill:#3CA56D;" d="M496.039,125.839c-3.619-6.664-9.661-11.086-16.345-12.732c1.468,1.578,2.77,3.369,3.852,5.362
	c6.78,12.486,2.486,28.104-9.591,34.885c-5.632,3.162-11.961,3.842-17.801,2.403c7.73,8.307,20.144,10.666,30.294,4.967
	C498.526,153.943,502.82,138.324,496.039,125.839z"/>
<path d="M511.764,218.085c-2.198-18.639-19.155-32.017-37.79-29.817l-102.893,12.133c-0.428,0.049-0.851-0.024-1.234-0.215
	l-0.68-0.339l79.16-40.169c2.464,2.737,5.388,5.115,8.718,7.028c5.616,3.227,11.773,4.762,17.826,4.762
	c11.657,0,22.924-5.699,29.162-15.988c4.518-7.45,5.799-16.237,3.609-24.741c-2.305-8.949-8.11-16.482-16.345-21.213
	c-16.432-9.442-37.51-4.405-46.988,11.225c-4.518,7.45-5.799,16.237-3.609,24.741c0.073,0.282,0.159,0.559,0.239,0.838
	l-88.765,45.043l-28.595-14.257l93.6-79.981c3.238,1.992,6.837,3.474,10.703,4.357c2.672,0.61,5.347,0.902,7.983,0.902
	c15.598,0,29.824-10.229,33.664-25.386c2.14-8.446,0.794-17.223-3.789-24.714c-4.822-7.883-12.577-13.387-21.836-15.501
	c-18.473-4.22-37.158,6.763-41.647,24.483c-2.14,8.446-0.794,17.223,3.788,24.714c0.081,0.133,0.169,0.259,0.252,0.39
	l-97.539,83.347l-20.699-10.32c-0.892-0.446-1.13-1.222-1.191-1.645c-0.062-0.424-0.057-1.236,0.672-1.918l50.617-47.378
	c7.116-6.661,11.214-15.695,11.535-25.436c0.323-9.743-3.169-19.027-9.83-26.143c-6.661-7.116-15.695-11.214-25.437-11.535
	c-9.727-0.329-19.027,3.168-26.142,9.83l-79.595,74.5c-1.404,1.315-2.527,2.908-3.296,4.666c-0.454,0.655-0.859,1.338-1.211,2.042
	l-11.205,22.472c-0.749-6.853-2.235-13.675-4.474-20.369c-8.2-24.509-25.454-44.358-48.583-55.89
	c-21.86-10.902-46.808-13.14-70.245-6.303c-4.041,1.179-6.361,5.411-5.183,9.453c1.178,4.041,5.41,6.358,9.453,5.183
	c19.742-5.761,40.758-3.873,59.173,5.31c19.485,9.715,34.02,26.436,40.929,47.083c6.907,20.645,5.362,42.743-4.349,62.225
	l-0.01,0.019c-14.252,28.572-43.122,45.124-73.072,45.121c-12.205-0.001-24.595-2.751-36.239-8.557
	C20.153,222.083,3.745,173.043,23.8,132.82c5.163-10.355,12.273-19.297,21.13-26.578c3.253-2.674,3.721-7.477,1.048-10.729
	c-2.676-3.253-7.48-3.722-10.729-1.048c-10.524,8.652-18.966,19.267-25.092,31.552c-23.806,47.746-4.329,105.958,43.416,129.764
	c13.825,6.893,28.526,10.158,43.017,10.158c17.585,0,34.855-4.815,49.869-13.779l-11.258,22.579
	c-0.393,0.789-0.724,1.614-0.989,2.466c-1.135,1.812-1.845,3.858-2.074,6.011l-11.601,108.401
	c-1.038,9.692,1.761,19.207,7.881,26.794c6.12,7.587,14.828,12.337,24.519,13.373c9.69,1.04,19.207-1.761,26.795-7.882
	c7.587-6.12,12.337-14.828,13.374-24.52l7.484-69.935c0.106-0.992,0.752-1.485,1.128-1.69c0.375-0.206,1.138-0.484,2.032-0.039
	l25.096,12.513c3.771,1.881,8.345,0.346,10.223-3.42c1.879-3.768,0.347-8.344-3.42-10.223l-25.096-12.513
	c-5.107-2.547-11.145-2.432-16.153,0.309c-5.007,2.74-8.359,7.765-8.966,13.441l-7.484,69.936
	c-1.248,11.649-11.737,20.108-23.389,18.866c-5.643-0.604-10.712-3.37-14.275-7.786c-3.563-4.418-5.193-9.958-4.589-15.602
	l11.568-108.09c0.726-0.938,1.224-2.034,1.452-3.201c0.032-0.162,0.075-0.297,0.131-0.409l34.489-69.173l0,0v-0.001l34.485-69.165
	c0.047-0.093,0.115-0.195,0.202-0.302c0.557-0.68,0.992-1.45,1.286-2.276l79.391-74.31c4.144-3.879,9.553-5.914,15.221-5.724
	c5.672,0.188,10.932,2.573,14.81,6.716s5.91,9.549,5.723,15.221s-2.573,10.932-6.715,14.81l-50.617,47.377
	c-4.168,3.901-6.164,9.602-5.34,15.25c0.825,5.647,4.367,10.541,9.475,13.086l14.911,7.435l-18.879,16.132
	c-5.473-3.35-11.898-4.57-18.266-3.423c-6.884,1.236-12.875,5.079-16.869,10.822c-3.994,5.742-5.512,12.695-4.276,19.581
	c0.004,0.022,0.008,0.044,0.012,0.066c-0.022,0.004-0.045,0.008-0.066,0.012c-6.884,1.236-12.875,5.079-16.869,10.822
	c-8.245,11.854-5.308,28.205,6.545,36.45c2.35,1.635,5.775,2.994,13.18,2.994c5.412,0,12.952-0.728,23.75-2.603
	c13.13-2.282,25.006-5.244,25.505-5.369c3.698-0.926,6.145-4.443,5.726-8.232c-0.047-0.424-0.99-8.872-2.696-19.22l59.269-30.076
	l10.81,5.39c3.049,1.521,6.453,2.113,9.823,1.712l102.89-12.134c10.29-1.206,19.652,6.173,20.866,16.463
	c0.588,4.985-0.801,9.902-3.911,13.843c-3.11,3.941-7.567,6.436-12.552,7.023l-68.591,8.089c-9.864,1.162-18.398,7.163-22.83,16.052
	l-39.688,79.599c-4.433,8.89-4.088,19.318,0.918,27.894l35.159,60.235c2.531,4.334,3.222,9.396,1.945,14.251
	c-1.275,4.855-4.366,8.923-8.701,11.453c-8.952,5.225-20.482,2.193-25.705-6.756l-52.23-89.478
	c-1.716-2.938-4.232-5.294-7.277-6.813l-27.721-13.821c-3.77-1.879-8.344-0.345-10.223,3.42c-1.879,3.768-0.347,8.345,3.42,10.223
	l27.72,13.82c0.383,0.192,0.701,0.489,0.916,0.859l52.228,89.476c6.321,10.827,17.737,16.871,29.454,16.871
	c5.823,0,11.722-1.494,17.103-4.634c7.852-4.583,13.449-11.951,15.76-20.744c2.311-8.794,1.06-17.961-3.523-25.813l-35.16-60.235
	c-2.406-4.122-2.571-9.133-0.441-13.405l39.688-79.599c2.13-4.272,6.231-7.156,10.971-7.715l68.591-8.089
	C500.585,253.679,513.961,236.727,511.764,218.085z M457.345,128.657c3.394-5.597,9.578-8.676,16.049-8.676
	c3.483,0,7.05,0.892,10.308,2.764c4.646,2.669,7.904,6.859,9.177,11.797c1.157,4.495,0.489,9.123-1.882,13.034
	c-5.22,8.61-17.045,11.261-26.358,5.911c-4.646-2.669-7.904-6.859-9.177-11.797C454.305,137.195,454.973,132.567,457.345,128.657z
	 M417.036,65.021c2.105-8.309,10.049-13.889,18.827-13.889c1.531,0,3.091,0.17,4.647,0.525c5.223,1.193,9.565,4.245,12.226,8.595
	c2.423,3.959,3.138,8.581,2.015,13.014c-2.472,9.759-13,15.756-23.474,13.365c-5.223-1.193-9.565-4.246-12.226-8.596
	C416.628,74.076,415.913,69.455,417.036,65.021z M235.976,258.264c-4.76-3.494-5.895-10.189-2.504-15.065
	c3.444-4.954,10.277-6.178,15.229-2.734c3.455,2.405,8.206,1.55,10.61-1.906c0.922-1.326,1.366-2.844,1.366-4.345
	c0-2.411-1.141-4.784-3.271-6.265c-2.399-1.668-4.005-4.172-4.521-7.048c-0.517-2.876,0.118-5.782,1.787-8.181
	c3.389-4.875,10.062-6.142,14.994-2.893c3.032,3.642,7.352,22.367,10.037,42.917C259.503,257.374,240.44,259.839,235.976,258.264z
	 M289.984,222.931c-1.314-5.862-2.602-10.344-3.864-13.806l24.869-21.251l24.251,12.092L289.984,222.931z"/>
<path d="M42.041,169.497c-3.002,6.022-3.48,12.852-1.345,19.233c2.134,6.381,6.626,11.549,12.648,14.551
	c3.6,1.794,7.427,2.644,11.201,2.644c9.256,0,18.182-5.116,22.585-13.948c3.002-6.022,3.48-12.852,1.345-19.233
	s-6.627-11.549-12.649-14.551C63.394,151.995,48.238,157.066,42.041,169.497z M74.017,177.582c0.843,2.519,0.654,5.216-0.531,7.593
	c-1.185,2.378-3.226,4.152-5.746,4.994c-2.519,0.842-5.217,0.654-7.594-0.531c-4.908-2.448-6.91-8.431-4.462-13.339
	c1.185-2.378,3.226-4.152,5.745-4.994c1.037-0.346,2.103-0.519,3.165-0.519c1.52,0,3.029,0.352,4.429,1.05
	C71.401,173.022,73.175,175.062,74.017,177.582z"/>
<path d="M74.344,138.776c1.284,2.794,4.045,4.441,6.931,4.441c1.065,0,2.148-0.224,3.179-0.699l5.11-2.349l0.889,5.554
	c0.599,3.749,3.838,6.419,7.517,6.419c0.4,0,0.806-0.032,1.214-0.097c4.157-0.665,6.987-4.575,6.321-8.731l-1.561-9.755l8.976-4.127
	c3.825-1.759,5.501-6.285,3.742-10.11c-1.758-3.824-6.282-5.502-10.11-3.742l-5.11,2.349l-0.889-5.554
	c-0.665-4.157-4.572-6.988-8.731-6.321c-4.157,0.665-6.987,4.575-6.321,8.731l1.561,9.755l-8.976,4.127
	C74.26,130.425,72.585,134.951,74.344,138.776z"/>
<path d="M118.222,168.98c-3.769-1.88-8.344-0.348-10.223,3.42s-0.347,8.344,3.42,10.223l8.131,4.054l-5.171,10.37l-7.992-3.984
	c-3.77-1.88-8.344-0.346-10.223,3.42c-1.879,3.768-0.347,8.345,3.42,10.223l7.992,3.984l-1.77,3.55
	c-1.879,3.768-0.347,8.344,3.42,10.223c1.093,0.545,2.253,0.803,3.395,0.803c2.799,0,5.494-1.548,6.828-4.223l1.77-3.55l6.404,3.193
	c1.093,0.545,2.253,0.803,3.395,0.803c2.799,0,5.494-1.548,6.828-4.223c1.879-3.768,0.347-8.345-3.42-10.223l-6.405-3.193
	l5.17-10.37l6.265,3.123c1.093,0.545,2.252,0.803,3.395,0.803c2.799,0,5.494-1.548,6.828-4.223c1.879-3.768,0.347-8.344-3.42-10.223
	l-6.265-3.124l4.789-9.605l6.405,3.193c1.093,0.545,2.253,0.803,3.395,0.803c2.799,0,5.494-1.548,6.828-4.223
	c1.879-3.768,0.347-8.344-3.42-10.223l-6.405-3.194l0.976-1.958c1.879-3.768,0.347-8.344-3.42-10.223
	c-3.77-1.879-8.344-0.346-10.223,3.42l-0.976,1.958l-7.991-3.984c-3.769-1.879-8.344-0.345-10.223,3.42
	c-1.879,3.768-0.347,8.344,3.42,10.223l7.992,3.985l-4.789,9.605L118.222,168.98z"/>
<g>
</g>
<g>
</g>
<g>
</g>
<g>
</g>
<g>
</g>
<g>
</g>
<g>
</g>
<g>
</g>
<g>
</g>
<g>
</g>
<g>
</g>
<g>
</g>
<g>
</g>
<g>
</g>
<g>
</g>
</svg>
