<?xml version="1.0" encoding="iso-8859-1"?>
<!-- Generator: Adobe Illustrator 19.0.0, SVG Export Plug-In . SVG Version: 6.00 Build 0)  -->
<svg version="1.1" id="Capa_1" xmlns="http://www.w3.org/2000/svg" xmlns:xlink="http://www.w3.org/1999/xlink" x="0px" y="0px"
	 viewBox="0 0 512 512" style="enable-background:new 0 0 512 512;" xml:space="preserve">
<path style="fill:#AA4141;" d="M256,7.65C118.84,7.65,7.65,118.84,7.65,256S118.84,504.351,256,504.351S504.351,393.161,504.351,256
	S393.161,7.65,256,7.65z"/>
<path style="fill:#963737;" d="M334.191,20.223c29.733,47.134,46.953,102.952,46.953,162.799
	c0,143.689-99.186,264.193-232.82,296.835c32.574,15.697,69.098,24.493,107.677,24.493c137.16,0,248.351-111.19,248.351-248.351
	C504.351,146.16,433.038,52.988,334.191,20.223z"/>
<path style="fill:#FFEBBE;" d="M257.88,461.691c-112.562,0-203.811-91.249-203.811-203.811S145.318,54.069,257.88,54.069
	s203.811,91.249,203.811,203.811S370.442,461.691,257.88,461.691z"/>
<path style="fill:#F7DBB5;" d="M364.847,84.377c10.556,30.947,16.297,64.124,16.297,98.646
	c0,119.738-68.883,223.363-169.173,273.475c14.755,3.397,30.123,5.193,45.909,5.193c112.562,0,203.811-91.249,203.811-203.811
	C461.691,184.553,422.96,120.281,364.847,84.377z"/>
<path style="fill:#FFCF65;" d="M248.856,455.066L76.947,172.562c-3.793-6.233,0.694-14.214,7.99-14.214h343.816
	c7.296,0,11.782,7.982,7.99,14.214L264.835,455.066C261.191,461.053,252.499,461.053,248.856,455.066z"/>
<g>
	<path style="fill:#FFB864;" d="M240.03,440.563l8.825,14.503c3.644,5.988,12.336,5.988,15.979,0l49.571-81.462
		C293.484,399.779,268.353,422.443,240.03,440.563z"/>
	<path style="fill:#FFB864;" d="M436.743,172.563c3.793-6.233-0.694-14.215-7.99-14.215H380.15
		c0.652,8.139,0.993,16.367,0.993,24.675c0,44.162-9.38,86.128-26.24,124.03L436.743,172.563z"/>
</g>
<path style="fill:#FFEBBE;" d="M256,204.176c-49.782,0-92.147,31.73-107.992,76.067C163.853,324.58,206.218,356.31,256,356.31
	s92.147-31.73,107.992-76.067C348.147,235.906,305.782,204.176,256,204.176z"/>
<circle style="fill:#AA4141;" cx="256" cy="280.24" r="32.03"/>
<path d="M375.22,29.398c-3.163-1.667-6.405-3.29-9.635-4.822c-3.819-1.811-8.379-0.183-10.189,3.633
	c-1.81,3.817-0.184,8.38,3.633,10.189c3.036,1.44,6.083,2.965,9.056,4.533C447.418,84.754,496.701,166.397,496.701,256
	c0,64.294-25.037,124.739-70.499,170.201c-45.463,45.463-105.908,70.5-170.202,70.5c-64.293,0-124.739-25.037-170.201-70.5
	c-45.463-45.462-70.5-105.907-70.5-170.201c0-64.293,25.037-124.738,70.5-170.201c45.463-45.462,105.908-70.5,170.201-70.5
	c23.434,0,46.591,3.358,68.83,9.983c4.047,1.206,8.309-1.099,9.515-5.147c1.206-4.048-1.099-8.308-5.147-9.514
	C305.541,3.573,280.913,0,256,0C187.62,0,123.333,26.628,74.981,74.981C26.628,123.333,0,187.621,0,256
	c0,68.38,26.628,132.667,74.981,181.019C123.333,485.372,187.62,512,256,512s132.667-26.628,181.019-74.981
	C485.372,388.667,512,324.38,512,256C512,160.704,459.589,73.875,375.22,29.398z"/>
<path d="M151.393,422.651c-3.545-2.296-8.282-1.284-10.579,2.262s-1.284,8.282,2.262,10.579
	c34.191,22.144,73.889,33.849,114.804,33.849c116.6,0,211.461-94.861,211.461-211.46S374.48,46.419,257.88,46.419
	c-79.636,0-149.121,44.257-185.18,109.46c-0.985,1.031-1.857,2.196-2.584,3.49c-0.903,1.606-1.522,3.3-1.872,5.025
	C54.283,192.6,46.419,224.337,46.419,257.88c0,29.982,6.149,58.958,18.276,86.122c11.714,26.237,28.387,49.479,49.558,69.08
	c3.1,2.871,7.94,2.682,10.81-0.416c2.87-3.101,2.684-7.94-0.416-10.81c-19.645-18.188-35.115-39.751-45.982-64.09
	c-11.246-25.189-16.947-52.066-16.947-79.885c0-25.665,4.962-50.277,13.965-72.766L124.347,265h-21.982
	c-4.225,0-7.649,3.275-7.649,7.5s3.425,7.5,7.649,7.5h28.01c1.037,0,2.025,0.027,2.927-0.347l59.725,98.266
	c-0.356-0.015-0.7,0.011-1.067,0.011c-12.452,0-18.645,9.016-23.167,15.577c-4.372,6.346-6.553,8.945-10.57,8.945
	c-4.016,0-6.196-2.578-10.569-8.923c-2.761-4.006-6.151-8.903-11.208-12.113c-4.818-3.059-11.109,0.251-11.547,5.941
	c-0.004,0.051-0.008,0.103-0.012,0.154c-0.209,2.762,1.163,5.393,3.493,6.891c2.027,1.303,3.915,3.809,6.675,7.816
	c4.522,6.562,10.714,15.548,23.166,15.548s18.645-8.986,23.167-15.548c4.372-6.346,6.553-8.931,10.57-8.931
	c4.018,0,6.198,2.585,10.572,8.931c3.13,4.541,7.064,10.238,13.315,13.319l22.861,37.568
	C207.596,450.079,177.729,439.708,151.393,422.651z M256,348.66c-44.193,0-83.964-27.378-99.831-68.417
	c15.867-41.039,55.637-68.417,99.831-68.417s83.964,27.378,99.831,68.417C339.964,321.282,300.193,348.66,256,348.66z M256,363.959
	c24.712,0,48.203-7.507,67.888-20.653l-35.105,57.688c-1.843-1.381-3.64-3.787-6.171-7.458
	c-4.522-6.562-10.715-15.548-23.169-15.548c-12.453,0-18.646,8.986-23.169,15.548c-4.337,6.293-6.52,8.883-10.474,8.926
	l-34.897-57.348C210.001,357.136,232.446,363.959,256,363.959z M248.871,402.218c4.373-6.346,6.554-8.931,10.572-8.931
	c4.018,0,6.199,2.585,10.574,8.931c2.687,3.899,5.977,8.641,10.807,11.858L258.3,451.089c-0.411,0.676-1.018,0.817-1.455,0.817
	c-0.437,0-1.044-0.141-1.455-0.816l-21.25-34.921C241.224,413.296,245.512,407.092,248.871,402.218z M274.865,453.298l21.787-35.803
	c10.168-1.489,15.623-9.358,19.703-15.276c4.375-6.347,6.556-8.932,10.574-8.932c4.019,0,6.201,2.585,10.576,8.932
	c4.523,6.561,10.716,15.547,23.17,15.547s18.648-8.986,23.171-15.547c2.762-4.007,4.651-6.514,6.68-7.817
	c2.331-1.498,3.704-4.129,3.495-6.892c-0.004-0.051-0.008-0.102-0.012-0.153c-0.437-5.689-6.727-8.997-11.546-5.94
	c-5.059,3.21-8.451,8.112-11.213,12.118c-4.375,6.347-6.557,8.932-10.576,8.932s-6.2-2.585-10.575-8.931
	c-4.523-6.562-10.716-15.548-23.171-15.548c-2.542,0-4.81,0.389-6.869,1.041l61.34-101.038c1.385,1.387,3.298,2.009,5.413,2.009
	h28.01c4.225,0,7.649-3.275,7.649-7.5s-3.425-7.5-7.649-7.5h-25.479l23.73-38.91c0.291-0.391,0.544-0.762,0.754-1.196l25.418-41.748
	c9.527,23.041,14.798,48.282,14.798,74.724C454.042,360.311,375.105,444.659,274.865,453.298z M83.377,168.339
	c0.396-0.769,0.805-1.527,1.21-2.29c0.113-0.021,0.219-0.049,0.35-0.049h20.875c4.225,0,7.649-3.275,7.649-7.5s-3.425-7.5-7.649-7.5
	h-12.14c35.064-54,95.57-88.98,164.208-88.98S387.024,97,422.088,151h-61.773l2.857-4.229c2.424-3.46,1.585-8.305-1.875-10.73
	c-3.458-2.422-8.23-1.473-10.654,1.989L341.635,151h-34.736l10.489-39.679c1.084-4.084-1.348-8.347-5.431-9.431
	c-4.087-1.083-8.272,1.462-9.356,5.545L291.071,151H265v-50.978c0-4.225-3.275-7.649-7.5-7.649s-7.5,3.424-7.5,7.649V151h-23.883
	l-11.531-43.603c-1.083-4.084-5.271-6.594-9.356-5.507c-4.083,1.084-6.515,5.385-5.431,9.469L210.288,151h-34.736l-9.008-13.007
	c-2.423-3.46-7.194-4.372-10.654-1.951c-3.46,2.424-4.299,7.307-1.875,10.767l2.857,4.191h-16.513c-4.225,0-7.649,3.275-7.649,7.5
	s3.425,7.5,7.649,7.5h27.233l16.493,23.537c1.488,2.125,3.861,3.26,6.271,3.26c1.516,0,3.047-0.451,4.383-1.386
	c3.46-2.424,4.299-7.193,1.875-10.653L186.272,166h28.076l2.202,8.295c0.909,3.426,4.003,5.688,7.388,5.688
	c0.649,0,1.31-0.084,1.967-0.258c4.083-1.083,6.515-5.271,5.431-9.354l-1.16-4.371H250v3.188c0,4.225,3.275,7.649,7.5,7.649
	s7.5-3.424,7.5-7.649V166h22.011l-1.16,4.371c-1.084,4.083,1.348,8.271,5.431,9.355c0.658,0.174,1.318,0.257,1.967,0.257
	c3.384,0,6.48-2.262,7.388-5.688L302.84,166h28.076l-10.342,14.758c-2.424,3.46-1.585,8.23,1.875,10.654
	c1.336,0.936,2.867,1.385,4.383,1.385c2.41,0,4.783-1.135,6.271-3.26L349.595,166h79.158c0.824,0,1.262,0.471,1.485,0.867
	c0.223,0.396,0.399,1.016-0.029,1.72l-28.84,47.393l-27.49,15.783c-3.664,2.104-4.928,6.778-2.825,10.442
	c1.414,2.463,3.991,3.842,6.641,3.842c1.292,0,2.601-0.328,3.802-1.017l3.374-1.937l-16.585,27.254
	c-19.211-44.457-63.369-73.82-112.285-73.82c-48.318,0-92.012,28.641-111.588,72.188l-17.469-28.708l8.749,5.023
	c1.201,0.69,2.509,1.017,3.802,1.017c2.65,0,5.227-1.378,6.641-3.842c2.103-3.663,0.839-8.338-2.825-10.442l-29.258-16.797
	c-0.932-0.536-1.93-0.851-2.935-0.966l-27.634-45.413C83.43,168.501,83.412,168.421,83.377,168.339z"/>
<path d="M256,240.562c-21.88,0-39.681,17.801-39.681,39.682c0,21.88,17.801,39.681,39.681,39.681s39.681-17.801,39.681-39.681
	C295.681,258.362,277.88,240.562,256,240.562z M256,304.625c-13.444,0-24.382-10.938-24.382-24.382S242.556,255.86,256,255.86
	c13.445,0,24.382,10.938,24.382,24.383S269.445,304.625,256,304.625z"/>
<path d="M355.28,216.163c1.862,0,3.728-0.675,5.201-2.042l35.66-33.084c3.097-2.874,3.278-7.713,0.405-10.81
	c-2.873-3.098-7.712-3.279-10.81-0.405l-35.66,33.084c-3.097,2.874-3.278,7.713-0.405,10.81
	C351.178,215.342,353.226,216.163,355.28,216.163z"/>
<path d="M156.707,214.122c1.473,1.367,3.339,2.042,5.201,2.042c2.054,0,4.103-0.822,5.61-2.447c2.874-3.097,2.692-7.937-0.405-10.81
	l-35.661-33.084c-3.098-2.875-7.938-2.691-10.81,0.405c-2.873,3.097-2.692,7.936,0.405,10.81L156.707,214.122z"/>
<g>
</g>
<g>
</g>
<g>
</g>
<g>
</g>
<g>
</g>
<g>
</g>
<g>
</g>
<g>
</g>
<g>
</g>
<g>
</g>
<g>
</g>
<g>
</g>
<g>
</g>
<g>
</g>
<g>
</g>
</svg>
