<?xml version="1.0" encoding="iso-8859-1"?>
<!-- Generator: Adobe Illustrator 19.0.0, SVG Export Plug-In . SVG Version: 6.00 Build 0)  -->
<svg version="1.1" id="Capa_1" xmlns="http://www.w3.org/2000/svg" xmlns:xlink="http://www.w3.org/1999/xlink" x="0px" y="0px"
	 viewBox="0 0 512 512" style="enable-background:new 0 0 512 512;" xml:space="preserve">
<path style="fill:#EDEDEE;" d="M257.769,504.365h-3.538c-65.163,0-117.988-52.825-117.988-117.988V249.281h239.514v137.096
	C375.757,451.54,322.932,504.365,257.769,504.365z"/>
<path style="fill:#DCDBDE;" d="M308.623,249.282v137.096c0,54.145-36.473,99.767-86.19,113.648c10.117,2.825,20.78,4.34,31.798,4.34
	h3.538c65.163,0,117.988-52.826,117.988-117.988V249.282H308.623z"/>
<path style="fill:#C1C2C4;" d="M375.978,304.508c-2.067-0.117-4.1-0.45-6.069-1.039c-9.759-2.922-20.156-1.427-28.496,4.089
	l-0.578,0.379c-9.616,6.298-15.356,16.857-15.356,28.247v31.043c0,25.483-20.732,46.215-46.215,46.215h-46.087
	c-25.483,0-46.215-20.732-46.215-46.215v-31.044c0-11.399-5.73-21.948-15.326-28.22c-0.442-0.289-0.883-0.581-1.323-0.874
	c-5.642-3.77-12.112-5.702-18.676-5.702c-3.645,0-7.321,0.596-10.899,1.806c-1.396,0.471-2.824,0.815-4.275,1.045v30.72
	c4.785-0.347,9.488-1.291,14.055-2.835c0.969-0.327,2-0.196,2.832,0.359c0.524,0.351,1.05,0.698,1.579,1.044
	c0.936,0.611,1.495,1.604,1.495,2.657v31.044c0,42.322,34.431,76.753,76.753,76.753h46.087c42.322,0,76.753-34.431,76.753-76.753
	v-31.043c0-1.056,0.579-2.065,1.537-2.692l0.677-0.444c1.084-0.718,2.295-0.51,2.92-0.322c4.819,1.442,9.789,2.227,14.827,2.36
	V304.508z"/>
<path style="fill:#EDEDEE;" d="M426.341,177.976c0-93.394-75.16-169.232-168.293-170.329C164.899,6.549,87.59,81.29,85.695,174.427
	c-0.548,26.944,5.18,52.49,15.793,75.304c-7.513,8.087-11.864,19.151-11.061,31.233c1.37,20.618,18.007,37.322,38.619,38.773
	c5.753,0.405,11.277-0.361,16.362-2.08c5.452-1.843,11.419-1.069,16.204,2.128c0.482,0.322,0.965,0.641,1.45,0.958
	c5.225,3.414,8.411,9.198,8.411,15.439v31.044c0,33.957,27.527,61.484,61.484,61.484h46.087c33.957,0,61.484-27.527,61.484-61.484
	v-31.043c0-6.26,3.215-12.043,8.452-15.472c0.204-0.133,0.407-0.267,0.61-0.401c4.648-3.072,10.383-3.81,15.72-2.212
	c4.486,1.343,9.288,1.951,14.269,1.685c20.871-1.114,37.917-17.89,39.338-38.742c0.76-11.158-2.871-21.455-9.334-29.344
	C420.311,229.385,426.341,204.388,426.341,177.976z"/>
<path style="fill:#DCDBDE;" d="M426.341,177.976c0-93.394-75.16-169.232-168.293-170.329c-7.325-0.086-14.551,0.298-21.651,1.122
	c84.788,9.773,150.624,81.8,150.624,169.208c0,26.221-5.915,44.61-5.915,44.61c-12.757,32.215-37.358,38.372-57.186,65.51
	c-10.927,14.956-22.571,39.247-22.713,79.13c0,33.956-27.527,61.484-61.484,61.484h39.32c33.957,0,61.484-27.528,61.484-61.484
	v-31.043c0-6.26,3.215-12.043,8.452-15.472c0.204-0.133,0.407-0.267,0.61-0.402c4.648-3.072,10.383-3.81,15.72-2.212
	c4.486,1.342,9.288,1.951,14.269,1.685c20.871-1.114,37.917-17.89,39.338-38.742c0.76-11.158-2.871-21.455-9.334-29.344
	C420.311,229.385,426.341,204.388,426.341,177.976z"/>
<path style="fill:#C1C2C4;" d="M246.331,235.593l-21.297,36.887c-4.297,7.443,1.074,16.746,9.669,16.746l17.038-8.275
	c2.689-1.306,5.829-1.306,8.518,0l17.038,8.275c8.594,0,13.966-9.304,9.669-16.746l-21.297-36.887
	C261.371,228.15,250.629,228.15,246.331,235.593z"/>
<path style="fill:#FFFFFF;" d="M171.473,367.226c0,33.956,27.527,61.484,61.484,61.484h46.087c33.957,0,61.484-27.528,61.484-61.484
	v-23.043H171.473V367.226z"/>
<g>
	<circle style="fill:#C1C2C4;" cx="188.87" cy="167.31" r="50.23"/>
	<circle style="fill:#C1C2C4;" cx="323.13" cy="167.31" r="50.23"/>
</g>
<g>
	<path style="fill:#A5A5A5;" d="M323.134,159.161c-20.226,0-37.648,11.961-45.609,29.189c7.961,17.228,25.383,29.189,45.609,29.189
		s37.648-11.961,45.609-29.189C360.782,171.122,343.36,159.161,323.134,159.161z"/>
	<path style="fill:#A5A5A5;" d="M188.866,159.161c-20.226,0-37.648,11.961-45.609,29.189c7.961,17.228,25.383,29.189,45.609,29.189
		s37.648-11.961,45.609-29.189C226.513,171.122,209.091,159.161,188.866,159.161z"/>
	<path style="fill:#A5A5A5;" d="M247.956,271.172c-1.912,4.704-4.594,11.3-10.179,12.597c-0.407,0.094-4.489,0.983-6.744-1.4
		c-1.957-2.068-1.355-5.349-1.145-6.489c0.579-3.156,2.351-5.587,8.653-11.197c6.887-6.132,10.331-9.198,11.706-8.398
		C252.718,257.722,249.596,267.138,247.956,271.172z"/>
	<path style="fill:#A5A5A5;" d="M264.044,271.172c1.912,4.704,4.594,11.3,10.179,12.597c0.407,0.094,4.489,0.983,6.744-1.4
		c1.957-2.068,1.355-5.349,1.145-6.489c-0.579-3.156-2.351-5.587-8.653-11.197c-6.887-6.132-10.331-9.198-11.706-8.398
		C259.282,257.722,262.404,267.138,264.044,271.172z"/>
</g>
<path d="M433.976,177.976c0-24.032-4.71-47.348-14-69.304c-1.644-3.883-6.125-5.698-10.006-4.056
	c-3.883,1.643-5.699,6.123-4.056,10.006c8.488,20.062,12.793,41.377,12.793,63.353c0,24.637-5.385,48.327-16.005,70.411
	c-1.286,2.674-0.907,5.851,0.974,8.147c5.511,6.728,8.218,15.246,7.623,23.987c-1.167,17.12-14.979,30.721-32.129,31.637
	c-0.243,0.013-0.484,0.016-0.726,0.024c-0.837-0.315-1.74-0.496-2.688-0.496c-0.756,0-1.485,0.114-2.174,0.319
	c-2.063-0.223-4.097-0.627-6.083-1.222c-7.585-2.27-15.65-1.118-22.122,3.16l-0.581,0.381c-7.454,4.882-11.903,13.053-11.903,21.86
	v0.365l-153.786,0.001v-0.367c0-8.814-4.438-16.975-11.868-21.829c-0.461-0.302-0.922-0.606-1.386-0.917
	c-6.791-4.537-15.134-5.633-22.889-3.012c-4.287,1.449-8.795,2.018-13.382,1.697c-16.859-1.186-30.417-14.798-31.537-31.663
	c-0.631-9.511,2.578-18.579,9.037-25.532c2.112-2.274,2.638-5.602,1.328-8.417c-10.518-22.607-15.592-46.807-15.082-71.927
	c1.795-88.248,74.588-159.313,162.697-159.313c0.639,0,1.293,0.004,1.934,0.011c54.108,0.637,104.214,28.05,134.032,73.33
	c2.319,3.521,7.054,4.495,10.575,2.177c3.521-2.319,4.496-7.054,2.177-10.575C372.131,30.69,317.325,0.71,258.139,0.013
	C257.432,0.004,256.728,0,256.023,0C159.656,0,80.026,77.743,78.062,174.272c-0.526,25.829,4.353,50.776,14.506,74.23
	c-7.113,9.432-10.556,20.958-9.759,32.968c1.623,24.438,21.27,44.163,45.701,45.882c0.033,0.002,0.066,0.003,0.098,0.004v59.02
	c0,18.575,3.961,36.463,11.773,53.165c1.297,2.773,4.049,4.402,6.921,4.402c1.084,0,2.184-0.232,3.23-0.721
	c3.819-1.786,5.467-6.331,3.681-10.151c-6.858-14.662-10.335-30.372-10.335-46.695v-60.34c1.336-0.33,2.664-0.704,3.976-1.148
	c3.228-1.09,6.699-0.638,9.511,1.24c0.504,0.338,1.01,0.672,1.52,1.005c3.102,2.026,4.953,5.409,4.953,9.048v31.044
	c0,38.112,31.006,69.119,69.119,69.119h46.087c38.112,0,69.119-31.006,69.119-69.119v-31.043c0-3.639,1.869-7.036,4.994-9.083
	l0.644-0.422c2.684-1.774,6.081-2.238,9.32-1.267c1.647,0.494,3.318,0.888,5.002,1.205v59.762
	c0,60.85-49.504,110.354-110.353,110.354h-3.538c-28.73,0-55.937-10.983-76.609-30.925c-1.757-1.695-3.486-3.477-5.14-5.3
	c-2.834-3.122-7.662-3.355-10.785-0.522c-3.121,2.834-3.356,7.662-0.522,10.785c1.881,2.072,3.849,4.101,5.847,6.027
	C190.554,499.497,221.525,512,254.231,512h3.538c69.269,0,125.622-56.355,125.622-125.623v-59.285
	c23.246-2.858,41.529-21.869,43.141-45.533c0.749-10.979-2.116-21.724-8.12-30.746C428.743,227.85,433.976,203.372,433.976,177.976z
	 M332.893,367.226c0,3.472-0.343,6.864-0.973,10.155h-17.568v-25.35c0-0.072-0.009-0.142-0.011-0.214h18.552L332.893,367.226
	L332.893,367.226z M231.46,377.38h-18.543v-25.563h18.543V377.38z M246.729,351.817h18.542v25.563h-18.542V351.817z M231.46,392.649
	v28.388c-6.536-0.18-12.783-1.526-18.543-3.845v-24.543H231.46z M246.729,392.649h18.542v28.426h-18.542V392.649z M280.54,392.649
	h18.542v24.543c-5.759,2.318-12.006,3.665-18.542,3.845V392.649z M280.54,377.38v-25.563h18.552
	c-0.002,0.072-0.011,0.141-0.011,0.213v25.35L280.54,377.38L280.54,377.38z M197.649,351.817v25.563H180.08
	c-0.631-3.291-0.973-6.683-0.973-10.155v-15.408H197.649z M185.502,392.649h12.147v15.183
	C192.741,403.559,188.607,398.423,185.502,392.649z M314.351,407.832v-15.183h12.147
	C323.392,398.423,319.258,403.559,314.351,407.832z"/>
<path d="M234.703,296.861c1.155,0,2.296-0.262,3.335-0.767l17.039-8.275c0.588-0.284,1.26-0.284,1.847,0l17.038,8.275
	c1.039,0.505,2.18,0.767,3.335,0.767c6.797,0,12.882-3.514,16.281-9.4c3.398-5.885,3.397-12.913-0.001-18.798l-21.296-36.887
	c-3.399-5.886-9.485-9.4-16.281-9.399c-6.797,0-12.882,3.514-16.279,9.399l-21.297,36.887c-3.398,5.885-3.399,12.912,0,18.798
	C221.821,293.347,227.906,296.861,234.703,296.861z M231.646,276.298l21.297-36.887c0.887-1.536,2.295-1.764,3.056-1.764
	s2.171,0.229,3.058,1.764l21.296,36.887c0.887,1.536,0.381,2.871,0,3.53c-0.273,0.474-0.819,1.181-1.765,1.539l-14.993-7.282
	c-2.414-1.173-5.004-1.759-7.596-1.759c-2.59,0-5.181,0.587-7.594,1.759l-14.994,7.282c-0.946-0.358-1.491-1.065-1.765-1.54
	C231.266,279.168,230.76,277.834,231.646,276.298z"/>
<path d="M188.866,209.905c-2.007,0-4.021-0.14-5.986-0.417c-4.166-0.579-8.036,2.321-8.624,6.496s2.321,8.036,6.496,8.624
	c2.667,0.376,5.397,0.566,8.114,0.566c31.906,0,57.864-25.958,57.864-57.864s-25.958-57.864-57.864-57.864
	s-57.864,25.958-57.864,57.864c0,15.805,6.253,30.566,17.606,41.564c3.03,2.935,7.863,2.857,10.796-0.172
	c2.934-3.028,2.857-7.861-0.172-10.795c-8.358-8.097-12.961-18.963-12.961-30.597c0-23.486,19.108-42.595,42.595-42.595
	s42.595,19.108,42.595,42.595S212.352,209.905,188.866,209.905z"/>
<path d="M380.997,167.31c0-31.906-25.958-57.864-57.863-57.864c-31.906,0-57.864,25.958-57.864,57.864s25.958,57.864,57.864,57.864
	S380.997,199.216,380.997,167.31z M280.54,167.31c0-23.486,19.108-42.595,42.595-42.595c23.486,0,42.594,19.108,42.594,42.595
	s-19.107,42.595-42.594,42.595C299.649,209.905,280.54,190.797,280.54,167.31z"/>
<g>
</g>
<g>
</g>
<g>
</g>
<g>
</g>
<g>
</g>
<g>
</g>
<g>
</g>
<g>
</g>
<g>
</g>
<g>
</g>
<g>
</g>
<g>
</g>
<g>
</g>
<g>
</g>
<g>
</g>
</svg>
